<svg id="Layer_1" data-name="Layer 1" xmlns="http://www.w3.org/2000/svg" viewBox="0 0 1920 1080"><defs><style>.cls-1{fill:#ed4a8c;}</style></defs><title>Artboard 1</title><path d="M169.3,443.41H274.91q5.26,40.71,33.68,62.1t76.14,21.4q49.47,0,75.08-17t25.61-50q0-26.31-21.4-40.7T348.24,383.76Q246.49,361,212.11,327.1T177.72,228q0-74.38,50.35-114.73T371,72.9q94.73,0,147.36,43t54.73,122.28l-102.8-.35q-1.76-36.84-28.42-57.54t-73-20.7q-43.51,0-66.31,15.79t-22.81,46.31q0,42.81,95.08,63.51,22.8,5.26,35.79,8.07,109.47,26.67,144.56,60t35.09,97.54q0,78.6-54.91,122.63t-153.5,44q-97.55,0-153.15-45.61T169.3,443.41Zm19.3,15.79q10.53,69.13,60.17,105.43t133.85,36.31q90.17,0,139.64-39.3t49.47-110.17q0-57.19-31.05-87T401.92,308.33q-9.47-2.1-28.42-6.67-111.57-26-111.58-80,0-37.19,27.54-57.54t78.07-20.35q50.17,0,80.87,20.17t38.42,58.42H553.5q-7.37-64.21-54.73-98.59T371,89.39q-84.91,0-129.64,35.61T196.67,228q0,57.89,27,86.49t121.4,50.7q1.75.35,5.61,1.4Q503.32,402,503.32,459.9q0,39.3-31.4,61.4T384,543.41q-50.52,0-82.8-21.58T258.42,459.2Z"/><path d="M667.88,603.05V86.23H775.25V278.86H970V86.23h107V603.05H970V373.94H775.25V603.05Zm18.25-16.49H757V357.45H987.87V586.56h71.23V103.07H987.87V295.35H757V103.07H686.13Z"/><path d="M1178,86.23H1285.4V426.92q0,45.62,26.32,71.4T1385,524.11q47,0,73.86-26t26.84-71.23V86.23h106.31V393.94q0,59.3-5.61,87t-18.95,49.47q-25.26,43.16-71,65.08t-110,21.93q-99.3,0-153.85-50.35T1178,424.82Zm18.25,17.54V422q0,87,48.77,133t140.7,46q53.68,0,92.63-16.31a157.54,157.54,0,0,0,64.91-50q16.84-21.4,23.86-50.7t7-89.3V103.77h-70.52V426.92q0,52.28-32.1,83T1385,540.6q-55.09,0-86.49-30.17t-31.4-83.51V103.77Z"/><path d="M1725.78,86.06q30,0,51.48,21.61t21.52,51.79q0,30.18-21.52,51.66t-52,21.48q-30.78,0-51.89-21.21t-21.11-51.93q0-30.45,21.52-51.93T1725.78,86.06Zm0,13.87q-24.8,0-42.24,17.32a56.93,56.93,0,0,0-17.44,41.95q0,24.9,17.44,42.22t42.24,17.32q24.8,0,42-17.32t17.17-42.22q0-24.62-17.31-41.95A57,57,0,0,0,1725.78,99.93Z"/><path d="M1698,123.31a10.93,10.93,0,0,1,3.24,5.65,5.93,5.93,0,0,1-7.13,7.31,11.08,11.08,0,0,1-5.76-3.11,10.75,10.75,0,0,1-3.19-5.7,5.93,5.93,0,0,1,7.13-7.31A11.3,11.3,0,0,1,1698,123.31Zm-.93.95a10.13,10.13,0,0,0-4.75-2.78,4.72,4.72,0,0,0-5.85,6,9.78,9.78,0,0,0,2.83,4.75,10,10,0,0,0,4.77,2.75,4.78,4.78,0,0,0,5.88-6A10,10,0,0,0,1697.08,124.26Z"/><path d="M1714.85,110.77a4.83,4.83,0,0,1,.06,3.46,3.9,3.9,0,0,1-2.52,2.23l-5.94,2.1,2.9,8.22a.66.66,0,1,1-1.25.44l-6-16.94,6.75-2.38Q1713.28,106.33,1714.85,110.77Zm-1.25.44q-1.13-3.19-4.28-2.07l-5.5,1.94,2.2,6.22,5.94-2.1a2.62,2.62,0,0,0,1.72-1.56A3.5,3.5,0,0,0,1713.6,111.21Z"/><path d="M1734.75,124.47l-11.46-1.28,2-18.25,11.47,1.28a.66.66,0,0,1-.15,1.32l-10.15-1.13-.68,6.13,9.55,1.07a.66.66,0,0,1-.15,1.32l-9.55-1.07-.91,8.17,10.15,1.13a.66.66,0,1,1-.15,1.32Z"/><path d="M1753.83,136.13q-.43.5-.81.18a1.08,1.08,0,0,1-.26-1l1.83-18.83-10,11.67a.66.66,0,1,1-1-.86l11.38-13.26a.51.51,0,0,1,.82-.09,1.07,1.07,0,0,1,.33,1l-1.86,18.67,9.93-11.57a.66.66,0,1,1,1,.86Z"/><path d="M1681.33,179.41q-4.86,1.48-6.77-4.81-1.13-3.7,2-7a.64.64,0,0,1,.29-.19q.73-.22.94.45a.51.51,0,0,1-.18.54,6.28,6.28,0,0,0-1.76,2.8,5.19,5.19,0,0,0,0,3q1.52,5,5.07,3.93,2.2-.67,2.59-3.86.2-2.89.4-5.8.49-3.22,2.88-3.94,4.18-1.27,6.05,4.08a8,8,0,0,1,.24,4q-.47,2.58-2.22,3.12-.54.17-.73-.44a.65.65,0,0,1,.26-.78,3.79,3.79,0,0,0,1.48-2.37,5.69,5.69,0,0,0-.22-3.1q-1.44-4.16-4.38-3.27-1.85.56-2.18,3.73-.24,2.89-.46,5.82Q1683.95,178.61,1681.33,179.41Z"/><path d="M1699.36,195a11,11,0,0,1-5.76,3.12,6,6,0,0,1-7.18-7.34,11.16,11.16,0,0,1,3.27-5.72,10.8,10.8,0,0,1,5.81-3.07,6,6,0,0,1,7.18,7.34A11.37,11.37,0,0,1,1699.36,195Zm-.93-1a10.18,10.18,0,0,0,2.91-4.71,4.75,4.75,0,0,0-5.9-6,9.83,9.83,0,0,0-4.84,2.73,10.07,10.07,0,0,0-2.88,4.73,4.81,4.81,0,0,0,5.92,6.05A10.08,10.08,0,0,0,1698.43,194Z"/><path d="M1717.93,206.39q-1.68,5.48-7.68,4.1a6.44,6.44,0,0,1-4-2.61,5.55,5.55,0,0,1-.77-5.12l3.57-11.64a.67.67,0,1,1,1.28.39l-3.57,11.64a4.31,4.31,0,0,0,.62,4,5.26,5.26,0,0,0,3.14,2q4.77,1.15,6.1-3.18l3.52-11.48a.67.67,0,0,1,1.28.39Z"/><path d="M1739.63,196.93a4.78,4.78,0,0,1-1,4.29,4,4,0,0,1-2.16,1.35l-1.31.24,6.65,6.64a.68.68,0,0,1,.2.36.61.61,0,0,1-.57.79.59.59,0,0,1-.55-.2l-7.38-7.28-4.59.85,1.48,8a.67.67,0,1,1-1.31.24l-3.28-17.77,7.8-1.44a5.33,5.33,0,0,1,3.77.56A4.65,4.65,0,0,1,1739.63,196.93Zm-1.31.24a3.41,3.41,0,0,0-1.64-2.48,4,4,0,0,0-2.82-.39l-6.49,1.2,1.32,7.15,7.54-1.39a2.48,2.48,0,0,0,1.44-1A3.56,3.56,0,0,0,1738.31,197.17Z"/><path d="M1761.57,194.64a8.61,8.61,0,0,1-.66,3.5,7.13,7.13,0,0,1-2,2.45,5.66,5.66,0,0,1-5.39,1,11.87,11.87,0,0,1-5.86-4.27q-3-3.7-2.8-7A5.8,5.8,0,0,1,1747,186a6.69,6.69,0,0,1,2.92-1.51,5.76,5.76,0,0,1,3.14.46.64.64,0,0,1,.29.2.66.66,0,0,1-.75,1,4.47,4.47,0,0,0-4.71.81,4.55,4.55,0,0,0-1.71,3.62,9.26,9.26,0,0,0,2.46,5.9,10.5,10.5,0,0,0,5,3.65,4.55,4.55,0,0,0,4.45-.6,5.79,5.79,0,0,0,2.1-4.88.64.64,0,0,1,.25-.54.62.62,0,0,1,1,.1A.66.66,0,0,1,1761.57,194.64Z"/><path d="M1775.82,176.15l-4.77,10.58-16.84-7.6,4.77-10.58a.67.67,0,1,1,1.22.55l-4.22,9.36,5.65,2.55,4-8.81a.67.67,0,1,1,1.22.55l-4,8.81,7.54,3.4,4.22-9.36a.67.67,0,0,1,1.21.55Z"/><path class="cls-1" d="M229.62,803.42q-6,7.19-11.58,9.92a29.81,29.81,0,0,1-13.3,2.73q-12.51,0-20.64-11.29T176,774.66q0-20.71,9.78-31.36a24.76,24.76,0,0,1,19-8.49q8.49,0,13.74,2.95t9.42,10.43a5.14,5.14,0,0,1,.58,2.3,4,4,0,0,1-1.37,3,4.38,4.38,0,0,1-3.09,1.29,4,4,0,0,1-3.6-2.27q-4.89-8.66-15.39-8.66-8.06,0-13.66,6.89-6.62,8.33-6.62,24,0,14.35,5.83,23.46T205,807.31q10.5,0,17.69-9.49a4.25,4.25,0,0,1,3.45-1.87,4.51,4.51,0,0,1,3.16,1.37,4.33,4.33,0,0,1,1.44,3.24A4.23,4.23,0,0,1,229.62,803.42Z"/><path class="cls-1" d="M304.27,775.38q0,15.82-7.91,27.62-8.63,12.8-22,12.8t-22-12.95q-7.91-11.79-7.91-27.47a48,48,0,0,1,8.06-27.47q8.77-12.66,21.86-12.66,13.95,0,22.29,12.8Q304.27,759.56,304.27,775.38Zm-8.49,0q0-12.31-5.07-20.9-5.79-10.16-16.36-10.17-10,0-16.07,10.17-5.36,8.88-5.36,20.9,0,12.31,5.21,21.19,5.93,10.17,16.22,10.17t16.22-10.17Q295.78,787.69,295.78,775.38Z"/><path class="cls-1" d="M383.09,811.19q0,4.61-4.17,4.6t-4.31-4.6V750.78l-19.27,28a5.69,5.69,0,0,1-4.89,2.73,5.42,5.42,0,0,1-4.75-2.59l-19.13-28.48v60.7q0,4.61-4.31,4.6t-4.46-4.6V740q0-4.89,4.79-4.89a7.37,7.37,0,0,1,6.24,3.53l21.67,31.49,21.83-31.27q2.87-4.19,6.31-4.19,4.45,0,4.45,5.32Z"/><path class="cls-1" d="M455.15,756.32q0,9.24-4.76,14.72Q445.33,777,436.24,777h-24V811.5q0,4.58-4.24,4.58t-4.24-4.6V735h30.64Q455.15,735,455.15,756.32Zm-8.49,0q0-12.29-12.18-12.3H412.29V767.9h24.08Q446.66,767.9,446.66,756.32Z"/><path class="cls-1" d="M525.05,788.9q0,25.32-26.47,27.18a27.43,27.43,0,0,1-19.71-5.9q-9.64-7.48-9.64-20.57v-50.2q0-4.6,4.24-4.6t4.24,4.6v50.2q0,8.77,6.67,13.66a20.1,20.1,0,0,0,13.62,4q18.55-1,18.55-18.41V739.42q0-4.6,4.24-4.6t4.24,4.6Z"/><path class="cls-1" d="M595.53,744H574.24v67.31q0,4.76-4.46,4.76t-4.6-4.76V744H544q-4.6,0-4.6-4.53T544,735h51.49q4.6,0,4.6,4.53T595.53,744Z"/><path class="cls-1" d="M663.71,814.64H615.24V735h48.47q4.46,0,4.46,4.31t-4.47,4.46h-40V766h37.67q4.33,0,4.33,4.53t-4.33,4.53H623.72v30.49h40q4.47,0,4.47,4.53T663.71,814.64Z"/><path class="cls-1" d="M742.53,757.32q0,12-7.87,18-5.3,4.19-10.45,4.18l-2.29-.07,19.8,29.23a4.92,4.92,0,0,1,.8,2.6,4.47,4.47,0,0,1-1.37,3.26,4.26,4.26,0,0,1-3.09,1.37,3.89,3.89,0,0,1-3.31-1.86l-23.59-34.53H694.49v31.82q0,4.57-4.24,4.57T686,811.34V735h33.8q9.49,0,15.82,5.63Q742.53,746.79,742.53,757.32Zm-8.49,0q0-6.44-4.13-9.87A15.24,15.24,0,0,0,719.84,744H694.49v26.47h29.7q2.75,0,5.8-2.72Q734,764,734,757.32Z"/><path class="cls-1" d="M795.46,779.55H759.79q-4.46,0-4.46-4.46t4.46-4.32h35.67q4.46,0,4.46,4.32T795.46,779.55Z"/><path class="cls-1" d="M880.9,809.75a5.46,5.46,0,0,1,.29,1.73,3.88,3.88,0,0,1-1.44,3.09,4.77,4.77,0,0,1-3.16,1.22,3.83,3.83,0,0,1-3.88-2.88l-5.07-12.36H828.08l-4.74,12.51a4.06,4.06,0,0,1-4,2.74q-4.45,0-4.45-4.21a5.14,5.14,0,0,1,.29-1.69L842.78,737a5.24,5.24,0,0,1,9.21,0Zm-16.74-18L847.46,749l-16.21,42.81Z"/><path class="cls-1" d="M912,811.19q0,4.61-4.46,4.6t-4.46-4.6V739.42q0-4.6,4.46-4.6t4.46,4.6Z"/><path class="cls-1" d="M991.22,772.79q0,19.56-7.48,29.34-6.47,8.34-19.71,10.93-8.34,1.58-27.62,1.58V735q28.48,0,38.69,4.89Q991.21,747.62,991.22,772.79Zm-8.49,0q0-19-11.79-25.17-7.48-3.88-25.75-3.88v62q18.27,0,25.6-4.46Q982.73,794.22,982.73,772.79Z"/><path class="cls-1" d="M1055.22,814.64h-48.47V735h48.47q4.46,0,4.46,4.31t-4.47,4.46h-40V766h37.67q4.33,0,4.33,4.53t-4.33,4.53h-37.67v30.49h40q4.47,0,4.47,4.53T1055.22,814.64Z"/><path class="cls-1" d="M1133,772.79q0,19.56-7.48,29.34-6.47,8.34-19.71,10.93-8.34,1.58-27.62,1.58V735q28.48,0,38.69,4.89Q1133,747.62,1133,772.79Zm-8.49,0q0-19-11.79-25.17-7.48-3.88-25.75-3.88v62q18.27,0,25.6-4.46Q1124.55,794.22,1124.55,772.79Z"/><path class="cls-1" d="M1260.19,772.79q0,19.56-7.48,29.34-6.47,8.34-19.71,10.93-8.34,1.58-27.62,1.58V735q28.48,0,38.69,4.89Q1260.18,747.62,1260.19,772.79Zm-8.49,0q0-19-11.79-25.17-7.48-3.88-25.75-3.88v62q18.27,0,25.6-4.46Q1251.7,794.22,1251.7,772.79Z"/><path class="cls-1" d="M1324.19,814.64h-48.47V735h48.47q4.46,0,4.46,4.31t-4.47,4.46h-40V766h37.67q4.33,0,4.33,4.53t-4.33,4.53h-37.67v30.49h40q4.47,0,4.47,4.53T1324.19,814.64Z"/><path class="cls-1" d="M1397.83,793.74q0,22.63-28.62,22.63-16.69,0-26.18-17.22a4.32,4.32,0,0,1-.58-2.17,4.88,4.88,0,0,1,1.51-3.54,4.67,4.67,0,0,1,3.38-1.52,3.23,3.23,0,0,1,3,2.18q6,13.5,18.84,13.5,19.85,0,19.85-13.69,0-7.49-11.79-12.68-11.08-4.61-22.15-9.08-11.79-6.77-11.79-17.87,0-19.89,24.6-20.9a29.47,29.47,0,0,1,16.76,3.88,22.89,22.89,0,0,1,10.14,12.95,3.89,3.89,0,0,1,.29,1.44q0,3.88-4.46,3.88a4,4,0,0,1-4.17-3,14,14,0,0,0-6.83-7.84,21,21,0,0,0-11.29-2.52q-16.11.72-16.11,11.82,0,7.78,11.79,12.83,10.93,4.47,22,8.94Q1397.83,782.36,1397.83,793.74Z"/><path class="cls-1" d="M1427.9,811.19q0,4.61-4.46,4.6t-4.46-4.6V739.42q0-4.6,4.46-4.6t4.46,4.6Z"/><path class="cls-1" d="M1507.44,785.63q0,30.46-23.16,30.46-14.1,0-23.44-13.09a44.94,44.94,0,0,1-8.77-27.33q0-18.84,9.06-30.35,8.77-11.07,21.86-11.08,9.49,0,15,3.88,3.16,2.16,7,8.05a5.35,5.35,0,0,1,.86,2.73q0,4-4,4a4.34,4.34,0,0,1-3.74-2.13,20.36,20.36,0,0,0-5.18-5.38q-3.45-2.12-9.92-2.13-9.92,0-16,8.9t-6.11,23.54A37.54,37.54,0,0,0,1467,797q6.76,10.48,17.26,10.48,9.78,0,12.8-8.92,1.44-4.46,1.44-15.25h-11.79q-4.31,0-4.31-4.53t4.31-4.53h20.71Z"/><path class="cls-1" d="M1585.39,811.32q0,4.48-3.55,4.47-2.55,0-4.83-3.39l-41.82-60.33v59.12q0,4.61-4.24,4.6t-4.24-4.59V738.83q0-4.3,4-4.3,2.88,0,4.89,3l41.28,59.55V739.15q0-4.62,4.24-4.62t4.24,4.62Z"/><path class="cls-1" d="M233.36,948q0,15.82-7.91,27.62-8.63,12.8-22,12.8t-22-12.95q-7.91-11.79-7.91-27.47a48,48,0,0,1,8.06-27.47q8.77-12.66,21.86-12.66,13.95,0,22.29,12.8Q233.36,932.16,233.36,948Zm-8.49,0q0-12.31-5.07-20.9-5.79-10.16-16.36-10.17-10,0-16.07,10.17Q182,936,182,948q0,12.31,5.21,21.19,5.93,10.17,16.22,10.17t16.22-10.17Q224.87,960.29,224.87,948Z"/><path class="cls-1" d="M300.39,928.92q0,9.24-4.76,14.72-5.05,5.92-14.14,5.92h-24V984.1q0,4.58-4.24,4.58t-4.24-4.6V907.56h30.64Q300.39,907.56,300.39,928.92Zm-8.49,0q0-12.29-12.18-12.3H257.52V940.5H281.6Q291.9,940.5,291.9,928.92Z"/><path class="cls-1" d="M363,987.25H314.48V907.56H363q4.46,0,4.46,4.31t-4.47,4.46H323v22.29h37.67q4.33,0,4.33,4.53t-4.33,4.53H323v30.49h40q4.47,0,4.47,4.53T363,987.25Z"/><path class="cls-1" d="M441.77,983.92q0,4.48-3.55,4.47-2.56,0-4.83-3.39l-41.82-60.33v59.12q0,4.61-4.24,4.6t-4.24-4.59V911.43q0-4.3,4-4.3,2.88,0,4.89,3l41.28,59.55V911.75q0-4.62,4.24-4.62t4.24,4.62Z"/><path class="cls-1" d="M568.35,966.34q0,22.63-28.62,22.63-16.69,0-26.18-17.22a4.32,4.32,0,0,1-.58-2.17,4.88,4.88,0,0,1,1.51-3.54,4.67,4.67,0,0,1,3.38-1.52,3.23,3.23,0,0,1,3,2.18q6,13.5,18.84,13.5,19.85,0,19.85-13.69,0-7.49-11.79-12.68-11.08-4.61-22.15-9.08-11.8-6.77-11.79-17.87,0-19.89,24.6-20.9a29.47,29.47,0,0,1,16.76,3.88,22.88,22.88,0,0,1,10.14,12.95,3.87,3.87,0,0,1,.29,1.44q0,3.88-4.46,3.88a4,4,0,0,1-4.17-3,14,14,0,0,0-6.83-7.84,21,21,0,0,0-11.29-2.52q-16.11.72-16.11,11.82,0,7.78,11.79,12.83,10.93,4.47,22,8.94Q568.34,955,568.35,966.34Z"/><path class="cls-1" d="M642.85,948q0,15.82-7.91,27.62-8.63,12.8-22,12.8t-22-12.95Q583,963.66,583,948a48,48,0,0,1,8.06-27.47q8.77-12.66,21.86-12.66,13.95,0,22.29,12.8Q642.85,932.16,642.85,948Zm-8.49,0q0-12.31-5.07-20.9-5.79-10.16-16.36-10.17-10,0-16.07,10.17Q591.5,936,591.5,948q0,12.31,5.21,21.19,5.93,10.17,16.22,10.17t16.22-10.17Q634.36,960.29,634.37,948Z"/><path class="cls-1" d="M714.48,961.5q0,25.32-26.47,27.18a27.43,27.43,0,0,1-19.71-5.9q-9.64-7.48-9.64-20.57V912q0-4.6,4.24-4.6t4.24,4.6v50.2q0,8.77,6.67,13.66a20.1,20.1,0,0,0,13.62,4q18.55-1,18.55-18.41V912q0-4.6,4.24-4.6t4.24,4.6Z"/><path class="cls-1" d="M787.55,929.93q0,12-7.87,18-5.3,4.19-10.45,4.18l-2.29-.07,19.8,29.23a4.92,4.92,0,0,1,.8,2.6,4.47,4.47,0,0,1-1.37,3.26,4.26,4.26,0,0,1-3.09,1.37,3.89,3.89,0,0,1-3.31-1.86l-23.59-34.53H739.51V984q0,4.57-4.24,4.57T731,983.95V907.56h33.8q9.49,0,15.82,5.63Q787.55,919.39,787.55,929.93Zm-8.49,0q0-6.44-4.13-9.87a15.24,15.24,0,0,0-10.07-3.43H739.51v26.47h29.7q2.75,0,5.8-2.72Q779.06,936.65,779.06,929.93Z"/><path class="cls-1" d="M856,976q-6,7.19-11.58,9.92a29.81,29.81,0,0,1-13.3,2.73q-12.51,0-20.64-11.29t-8.13-30.13q0-20.71,9.78-31.36a24.76,24.76,0,0,1,19-8.49q8.49,0,13.74,2.95t9.42,10.43a5.14,5.14,0,0,1,.58,2.3,4,4,0,0,1-1.37,3,4.38,4.38,0,0,1-3.09,1.29,4,4,0,0,1-3.6-2.27q-4.89-8.66-15.39-8.66-8.06,0-13.66,6.89-6.62,8.33-6.62,24,0,14.35,5.83,23.46t14.46,9.11q10.5,0,17.69-9.49a4.25,4.25,0,0,1,3.45-1.87,4.51,4.51,0,0,1,3.16,1.37,4.33,4.33,0,0,1,1.44,3.24A4.23,4.23,0,0,1,856,976Z"/><path class="cls-1" d="M921.46,987.25H873V907.56h48.47q4.46,0,4.46,4.31t-4.47,4.46h-40v22.29h37.67q4.33,0,4.33,4.53t-4.33,4.53H881.47v30.49h40q4.47,0,4.47,4.53T921.46,987.25Z"/><path class="cls-1" d="M1051.34,928.92q0,9.24-4.76,14.72-5.05,5.92-14.14,5.92h-24V984.1q0,4.58-4.24,4.58t-4.24-4.6V907.56h30.64Q1051.34,907.56,1051.34,928.92Zm-8.49,0q0-12.29-12.18-12.3h-22.19V940.5h24.08Q1042.85,940.5,1042.85,928.92Z"/><path class="cls-1" d="M1121.82,929.93q0,12-7.87,18-5.3,4.19-10.45,4.18l-2.29-.07,19.8,29.23a4.92,4.92,0,0,1,.8,2.6,4.47,4.47,0,0,1-1.37,3.26,4.26,4.26,0,0,1-3.09,1.37,3.89,3.89,0,0,1-3.31-1.86l-23.59-34.53h-16.68V984q0,4.57-4.24,4.57t-4.24-4.59V907.56h33.8q9.49,0,15.82,5.63Q1121.82,919.39,1121.82,929.93Zm-8.49,0q0-6.44-4.13-9.87a15.24,15.24,0,0,0-10.07-3.43h-25.36v26.47h29.7q2.75,0,5.8-2.72Q1113.33,936.65,1113.33,929.93Z"/><path class="cls-1" d="M1194,948q0,15.82-7.91,27.62-8.63,12.8-22,12.8t-22-12.95q-7.91-11.79-7.91-27.47a48,48,0,0,1,8.05-27.47q8.77-12.66,21.86-12.66,13.95,0,22.29,12.8Q1194,932.16,1194,948Zm-8.49,0q0-12.31-5.07-20.9-5.79-10.16-16.36-10.17-10,0-16.07,10.17-5.36,8.88-5.36,20.9,0,12.31,5.21,21.19,5.93,10.17,16.22,10.17t16.22-10.17Q1185.53,960.29,1185.54,948Z"/><path class="cls-1" d="M1257.88,961.07q0,10.07-7.48,18.41a25.5,25.5,0,0,1-20,9.21q-10.07,0-17.84-8.34-7.34-7.91-7.34-16.4,0-4.46,4.1-4.46,4.38,0,4.38,4.75,0,5.32,5.08,10.5a15.82,15.82,0,0,0,11.6,5.18,18.13,18.13,0,0,0,13.92-6.18,18.72,18.72,0,0,0,5.08-12.66V912q0-4.6,4.24-4.6t4.24,4.6Z"/><path class="cls-1" d="M1324.33,987.25h-48.47V907.56h48.47q4.46,0,4.46,4.31t-4.47,4.46h-40v22.29H1322q4.33,0,4.33,4.53t-4.33,4.53h-37.67v30.49h40q4.47,0,4.47,4.53T1324.33,987.25Z"/><path class="cls-1" d="M1400.71,976q-6,7.19-11.58,9.92a29.81,29.81,0,0,1-13.3,2.73q-12.51,0-20.64-11.29t-8.13-30.13q0-20.71,9.78-31.36a24.76,24.76,0,0,1,19-8.49q8.48,0,13.74,2.95t9.42,10.43a5.14,5.14,0,0,1,.58,2.3,4,4,0,0,1-1.37,3,4.38,4.38,0,0,1-3.09,1.29,4,4,0,0,1-3.6-2.27q-4.89-8.66-15.39-8.66-8.06,0-13.66,6.89-6.62,8.33-6.62,24,0,14.35,5.83,23.46t14.46,9.11q10.5,0,17.69-9.49a4.25,4.25,0,0,1,3.45-1.87,4.51,4.51,0,0,1,3.17,1.37,4.33,4.33,0,0,1,1.44,3.24A4.23,4.23,0,0,1,1400.71,976Z"/><path class="cls-1" d="M1471.48,916.62h-21.29v67.31q0,4.76-4.46,4.76t-4.6-4.76V916.62H1420q-4.61,0-4.6-4.53t4.6-4.53h51.49q4.6,0,4.6,4.53T1471.48,916.62Z"/><path class="cls-1" d="M1542.39,966.34q0,22.63-28.62,22.63-16.69,0-26.18-17.22a4.32,4.32,0,0,1-.58-2.17,4.88,4.88,0,0,1,1.51-3.54,4.67,4.67,0,0,1,3.38-1.52,3.23,3.23,0,0,1,3,2.18q6,13.5,18.84,13.5,19.85,0,19.85-13.69,0-7.49-11.79-12.68-11.08-4.61-22.15-9.08-11.79-6.77-11.79-17.87,0-19.89,24.6-20.9a29.47,29.47,0,0,1,16.76,3.88,22.89,22.89,0,0,1,10.14,12.95,3.89,3.89,0,0,1,.29,1.44q0,3.88-4.46,3.88a4,4,0,0,1-4.17-3,14,14,0,0,0-6.83-7.84,21,21,0,0,0-11.29-2.52q-16.11.72-16.11,11.82,0,7.78,11.79,12.83,10.93,4.47,22,8.94Q1542.38,955,1542.39,966.34Z"/></svg>